<?xml version="1.0" encoding="UTF-8"?>
<svg width="33px" height="36px" viewBox="0 0 33 36" version="1.1" xmlns="http://www.w3.org/2000/svg" xmlns:xlink="http://www.w3.org/1999/xlink">
    <!-- Generator: Sketch 60.1 (88133) - https://sketch.com -->
    <title>Group 27</title>
    <desc>Created with Sketch.</desc>
    <g id="页面-1" stroke="none" stroke-width="1" fill="none" fill-rule="evenodd">
        <g id="DEMO首页" transform="translate(-171.000000, -687.000000)">
            <g id="Group-27" transform="translate(171.000000, 687.000000)">
                <polygon id="Fill-1" fill="#00BABA" points="12.8841209 7.05701163 9.13823721 4.59736047 16.3161209 22.5248023 16.3161209 14.220314"></polygon>
                <polygon id="Fill-2" fill="#007C7C" points="10.5735837 14.0812535 9.13846744 4.59797442 16.3155837 22.5246488 16.3155837 27.6335093"></polygon>
                <polygon id="Fill-3" fill="#00F8F8" points="12.8842744 7.05724186 16.315507 14.2205442 16.315507 0.000613953488"></polygon>
                <polygon id="Fill-4" fill="#00BABA" points="10.5735837 14.0812535 4.72644419 9.33769535 13.0270953 24.6105558 16.3155837 27.6335093"></polygon>
                <polygon id="Fill-5" fill="#003E3E" points="4.97141163 13.2227163 4.72659767 9.33792558 13.0272488 24.610786"></polygon>
                <polygon id="Fill-6" fill="#003E3E" points="3.18618837 18.1056419 7.1907 19.2460605 -0.000230232558 12.6529674"></polygon>
                <polygon id="Fill-7" fill="#007C7C" points="13.0272488 24.6106326 4.97141163 13.2225628 -7.6744186e-05 12.6523535"></polygon>
                <polygon id="Fill-8" fill="#007C7C" points="0.111893023 20.4132628 7.19077674 19.2459837 3.16707907 18.1055651"></polygon>
                <polygon id="Fill-9" fill="#003E3E" points="0.111893023 20.4132628 16.3156605 27.6341233 7.19077674 19.2459837"></polygon>
                <polygon id="Fill-10" fill="#007C7C" points="16.3158907 27.6336628 3.15119302 25.2515233 6.91549535 23.439593"></polygon>
                <polygon id="Fill-11" fill="#003E3E" points="3.15096279 25.2515233 10.1884047 28.1386395 16.3156605 27.6336628"></polygon>
                <polygon id="Fill-12" fill="#003E3E" points="9.1383907 30.5973698 16.3162744 27.6335093 10.1882512 28.138486"></polygon>
                <polygon id="Fill-13" fill="#007C7C" points="14.9660372 33.613186 16.3159674 35.8947907 16.3159674 27.6340465"></polygon>
                <polygon id="Fill-14" fill="#00F8F8" points="19.746893 7.05701163 23.4935442 4.59736047 16.3156605 22.5248023 16.3156605 14.220314"></polygon>
                <polygon id="Fill-15" fill="#007C7C" points="22.0574302 14.0812535 23.493314 4.59797442 16.3161977 22.5246488 16.3161977 27.6335093"></polygon>
                <polygon id="Fill-16" fill="#00BABA" points="16.3156605 14.2204674 19.746893 7.05716512 16.3156605 0.000537209302"></polygon>
                <polygon id="Fill-17" fill="#00BABA" points="22.0574302 14.0812535 27.9045698 9.33769535 19.604686 24.6105558 16.3161977 27.6335093"></polygon>
                <polygon id="Fill-18" fill="#003E3E" points="27.6596791 13.2227163 27.904493 9.33792558 19.6046093 24.610786"></polygon>
                <polygon id="Fill-19" fill="#003E3E" points="25.4411581 19.2459837 29.4456698 18.1055651 32.6313209 12.6528907"></polygon>
                <polygon id="Fill-20" fill="#007C7C" points="27.6596791 13.2224093 19.6046093 24.6104791 32.6311674 12.6522"></polygon>
                <polygon id="Fill-21" fill="#007C7C" points="25.4411581 19.2459837 32.5192744 20.4132628 29.4640884 18.1055651"></polygon>
                <polygon id="Fill-22" fill="#003E3E" points="16.3156605 27.6338163 32.5194279 20.4129558 25.4413116 19.2456767"></polygon>
                <polygon id="Fill-23" fill="#007C7C" points="16.3158907 27.6336628 29.4798209 25.2515233 25.716286 23.439593"></polygon>
                <polygon id="Fill-24" fill="#003E3E" points="29.4800512 25.2515233 22.4426093 28.1386395 16.3161209 27.6336628"></polygon>
                <polygon id="Fill-25" fill="#003E3E" points="23.4933907 30.5973698 16.315507 27.6335093 22.4427628 28.138486"></polygon>
                <polygon id="Fill-26" fill="#003E3E" points="16.3156605 35.8945605 17.6648233 33.6129558 16.3156605 27.6338163"></polygon>
            </g>
        </g>
    </g>
</svg>