<?xml version="1.0" encoding="UTF-8"?>
<svg width="24px" height="24px" viewBox="0 0 24 24" version="1.1" xmlns="http://www.w3.org/2000/svg" xmlns:xlink="http://www.w3.org/1999/xlink">
    <!-- Generator: Sketch 58 (84663) - https://sketch.com -->
    <title>cyan备份</title>
    <desc>Created with Sketch.</desc>
    <g id="页面-1" stroke="none" stroke-width="1" fill="none" fill-rule="evenodd">
        <g id="icon" transform="translate(-1336.000000, -242.000000)">
            <g id="Checkbox备份" transform="translate(1336.000000, 242.000000)">
                <rect id="bound" x="0" y="0" width="24" height="24"></rect>
                <path d="M10.875,14.75 C10.6354167,14.75 10.3958333,14.6541667 10.2041667,14.4625 L8.2875,12.5458333 C7.90416667,12.1625 7.90416667,11.5875 8.2875,11.2041667 C8.67083333,10.8208333 9.29375,10.8208333 9.62916667,11.2041667 L10.875,12.45 L14.0375,9.2875 C14.4208333,8.90416667 14.9958333,8.90416667 15.3791667,9.2875 C15.7625,9.6708333 15.7625,10.2458333 15.3791667,10.6291667 L11.5458333,14.4625 C11.3541667,14.6541667 11.1145833,14.75 10.875,14.75 Z" id="check-path" fill-opacity="0.3" fill="#000000" fill-rule="nonzero"></path>
                <path d="M7,6 C6.44771525,6 6,6.44771525 6,7 L6,17 C6,17.5522847 6.44771525,18 7,18 L17,18 C17.5522847,18 18,17.5522847 18,17 L18,7 C18,6.44771525 17.5522847,6 17,6 L7,6 Z M7,4 L17,4 C18.6568542,4 20,5.34314575 20,7 L20,17 C20,18.6568542 18.6568542,20 17,20 L7,20 C5.34314575,20 4,18.6568542 4,17 L4,7 C4,5.34314575 5.34314575,4 7,4 Z" id="Rectangle" fill="#000000" fill-rule="nonzero"></path>
            </g>
        </g>
    </g>
</svg>