<?xml version="1.0" encoding="UTF-8"?>
<svg width="24px" height="24px" viewBox="0 0 24 24" version="1.1" xmlns="http://www.w3.org/2000/svg" xmlns:xlink="http://www.w3.org/1999/xlink">
    <!-- Generator: Sketch 58 (84663) - https://sketch.com -->
    <title>cyan备份 18</title>
    <desc>Created with Sketch.</desc>
    <g id="页面-1" stroke="none" stroke-width="1" fill="none" fill-rule="evenodd">
        <g id="icon" transform="translate(-708.000000, -493.000000)">
            <g id="Date-Picker" transform="translate(708.000000, 493.000000)">
                <rect id="bound" x="0" y="0" width="24" height="24"></rect>
                <path d="M20.5,3 C20.7761424,3 21,3.22385763 21,3.5 L21,4.5 C21,4.77614237 20.7761424,5 20.5,5 L19,5 L19,7 L20,7 C20.5522847,7 21,7.44771525 21,8 L21,20 C21,20.5522847 20.5522847,21 20,21 L4,21 C3.44771525,21 3,20.5522847 3,20 L3,8 C3,7.44771525 3.44771525,7 4,7 L5,7 L5,5 L3.5,5 C3.22385763,5 3,4.77614237 3,4.5 L3,3.5 C3,3.22385763 3.22385763,3 3.5,3 L20.5,3 Z M17,5 L7,5 L7,7 L17,7 L17,5 Z" id="形状结合" fill="#000000" fill-rule="nonzero" opacity="0.3"></path>
                <rect id="Rectangle-3-Copy-8" fill="#000000" fill-rule="nonzero" opacity="0.3" x="5" y="9" width="2" height="2" rx="0.5"></rect>
                <rect id="Rectangle-3-Copy-9" fill="#000000" fill-rule="nonzero" opacity="0.3" x="5" y="13" width="2" height="2" rx="0.5"></rect>
                <rect id="Rectangle-3-Copy备份-2" fill="#000000" fill-rule="nonzero" x="9" y="13" width="2" height="2" rx="0.5"></rect>
                <rect id="Rectangle-3-Copy备份" fill="#000000" fill-rule="nonzero" opacity="0.3" x="9" y="9" width="2" height="2" rx="0.5"></rect>
                <rect id="Rectangle-3-Copy-2备份-2" fill="#000000" fill-rule="nonzero" opacity="0.3" x="13" y="13" width="2" height="2" rx="0.5"></rect>
                <rect id="Rectangle-3-Copy-2备份" fill="#000000" fill-rule="nonzero" opacity="0.3" x="13" y="9" width="2" height="2" rx="0.5"></rect>
                <rect id="Rectangle-3-Copy-10" fill="#000000" fill-rule="nonzero" opacity="0.3" x="17" y="9" width="2" height="2" rx="0.5"></rect>
                <rect id="Rectangle-3-Copy-11" fill="#000000" fill-rule="nonzero" opacity="0.3" x="17" y="13" width="2" height="2" rx="0.5"></rect>
                <rect id="Rectangle-3-Copy-7" fill="#000000" fill-rule="nonzero" opacity="0.3" x="5" y="17" width="2" height="2" rx="0.5"></rect>
                <rect id="Rectangle-3-Copy-6" fill="#000000" fill-rule="nonzero" opacity="0.3" x="9" y="17" width="2" height="2" rx="0.5"></rect>
                <rect id="Rectangle-3-Copy-5" fill="#000000" fill-rule="nonzero" opacity="0.3" x="13" y="17" width="2" height="2" rx="0.5"></rect>
                <rect id="Rectangle-3-Copy-4" fill="#000000" fill-rule="nonzero" opacity="0.3" x="17" y="17" width="2" height="2" rx="0.5"></rect>
            </g>
        </g>
    </g>
</svg>