<?xml version="1.0" encoding="UTF-8"?>
<svg width="24px" height="24px" viewBox="0 0 24 24" version="1.1" xmlns="http://www.w3.org/2000/svg" xmlns:xlink="http://www.w3.org/1999/xlink">
    <!-- Generator: Sketch 58 (84663) - https://sketch.com -->
    <title>cyan备份 12</title>
    <desc>Created with Sketch.</desc>
    <g id="页面-1" stroke="none" stroke-width="1" fill="none" fill-rule="evenodd">
        <g id="icon" transform="translate(-1461.000000, -367.000000)">
            <g id="Select备份" transform="translate(1461.000000, 368.000000)">
                <rect id="bound" x="0" y="0" width="24" height="24"></rect>
                <path d="M10.412665,14.9436996 L13.9127368,12.1828235 C14.017538,12.1001557 14.0296515,11.9549807 13.939793,11.858566 C13.9316476,11.8498262 13.9228003,11.8416616 13.9133257,11.8341409 L10.4132539,9.05585479 C10.3087325,8.97288779 10.1508928,8.98358069 10.0607091,9.07973806 C10.0215459,9.12149535 10,9.17481077 10,9.2299631 L10,14.7691253 C10,14.8961283 10.1119117,14.9990845 10.2499619,14.9990845 C10.3096442,14.9990845 10.3673569,14.9794388 10.412665,14.9436996 Z" id="Path-10-Copy" fill="#000000" fill-rule="nonzero" opacity="0.3" transform="translate(12.000000, 11.999542) rotate(-270.000000) translate(-12.000000, -11.999542) "></path>
                <path d="M7,6 C6.44771525,6 6,6.44771525 6,7 L6,17 C6,17.5522847 6.44771525,18 7,18 L17,18 C17.5522847,18 18,17.5522847 18,17 L18,7 C18,6.44771525 17.5522847,6 17,6 L7,6 Z M7,4 L17,4 C18.6568542,4 20,5.34314575 20,7 L20,17 C20,18.6568542 18.6568542,20 17,20 L7,20 C5.34314575,20 4,18.6568542 4,17 L4,7 C4,5.34314575 5.34314575,4 7,4 Z" id="Rectangle" fill="#000000" fill-rule="nonzero"></path>
            </g>
        </g>
    </g>
</svg>