<?xml version="1.0" encoding="UTF-8"?>
<svg width="24px" height="24px" viewBox="0 0 24 24" version="1.1" xmlns="http://www.w3.org/2000/svg" xmlns:xlink="http://www.w3.org/1999/xlink">
    <!-- Generator: Sketch 58 (84663) - https://sketch.com -->
    <title>cyan备份 29</title>
    <desc>Created with Sketch.</desc>
    <g id="页面-1" stroke="none" stroke-width="1" fill="none" fill-rule="evenodd">
        <g id="icon" transform="translate(-583.000000, -993.000000)">
            <g id="Swiper" transform="translate(584.000000, 993.000000)">
                <rect id="bound" x="0" y="0" width="24" height="24"></rect>
                <path d="M9.625,5 L19.375,5 C20.2724627,5 21,5.67157288 21,6.5 C21,7.32842712 20.2724627,8 19.375,8 L9.625,8 C8.72753729,8 8,7.32842712 8,6.5 C8,5.67157288 8.72753729,5 9.625,5 Z M9.625,10 L19.375,10 C20.2724627,10 21,10.6715729 21,11.5 C21,12.3284271 20.2724627,13 19.375,13 L9.625,13 C8.72753729,13 8,12.3284271 8,11.5 C8,10.6715729 8.72753729,10 9.625,10 Z M9.625,15 L19.375,15 C20.2724627,15 21,15.6715729 21,16.5 C21,17.3284271 20.2724627,18 19.375,18 L9.625,18 C8.72753729,18 8,17.3284271 8,16.5 C8,15.6715729 8.72753729,15 9.625,15 Z" id="Combined-Shape" fill="#000000" fill-rule="nonzero"></path>
                <path d="M4.5,8 C3.67157288,8 3,7.32842712 3,6.5 C3,5.67157288 3.67157288,5 4.5,5 C5.32842712,5 6,5.67157288 6,6.5 C6,7.32842712 5.32842712,8 4.5,8 Z M4.5,13 C3.67157288,13 3,12.3284271 3,11.5 C3,10.6715729 3.67157288,10 4.5,10 C5.32842712,10 6,10.6715729 6,11.5 C6,12.3284271 5.32842712,13 4.5,13 Z M4.5,18 C3.67157288,18 3,17.3284271 3,16.5 C3,15.6715729 3.67157288,15 4.5,15 C5.32842712,15 6,15.6715729 6,16.5 C6,17.3284271 5.32842712,18 4.5,18 Z" id="Combined-Shape" fill="#000000" fill-rule="nonzero" opacity="0.3"></path>
            </g>
        </g>
    </g>
</svg>