<?xml version="1.0" encoding="UTF-8"?>
<svg width="24px" height="24px" viewBox="0 0 24 24" version="1.1" xmlns="http://www.w3.org/2000/svg" xmlns:xlink="http://www.w3.org/1999/xlink">
    <!-- Generator: Sketch 58 (84663) - https://sketch.com -->
    <title>cyan备份 13</title>
    <desc>Created with Sketch.</desc>
    <g id="页面-1" stroke="none" stroke-width="1" fill="none" fill-rule="evenodd">
        <g id="icon" transform="translate(-1585.000000, -367.000000)">
            <g id="Textarea备份" transform="translate(1585.000000, 368.000000)">
                <rect id="bound" x="0" y="0" width="24" height="24"></rect>
                <path d="M11.7445312,18.0157472 L11.4855385,5.24191201 C11.4774816,4.84453542 11.6274667,4.4602058 11.902555,4.17332699 L14.480068,1.48534054 L17.0681265,4.18432445 C17.3369584,4.4646786 17.486558,4.83838353 17.4854512,5.22680057 L17.4488775,17.9896383 C17.4465088,18.8163841 16.7756329,19.4853405 15.9488837,19.4853405 L13.244223,19.4853405 C12.4276465,19.4853405 11.7610841,18.8321559 11.7445312,18.0157472 Z" id="Path-11" fill="#000000" fill-rule="nonzero" transform="translate(14.485341, 10.485341) rotate(-135.000000) translate(-14.485341, -10.485341) "></path>
                <path d="M12.9,2 C13.4522847,2 13.9,2.44771525 13.9,3 C13.9,3.55228475 13.4522847,4 12.9,4 L6,4 C4.8954305,4 4,4.8954305 4,6 L4,18 C4,19.1045695 4.8954305,20 6,20 L18,20 C19.1045695,20 20,19.1045695 20,18 L20,13 C20,12.4477153 20.4477153,12 21,12 C21.5522847,12 22,12.4477153 22,13 L22,18 C22,20.209139 20.209139,22 18,22 L6,22 C3.790861,22 2,20.209139 2,18 L2,6 C2,3.790861 3.790861,2 6,2 L12.9,2 Z" id="Path-57" fill="#000000" fill-rule="nonzero" opacity="0.3"></path>
            </g>
        </g>
    </g>
</svg>