<?xml version="1.0" encoding="utf-8"?>
<!-- Generator: Adobe Illustrator 23.0.1, SVG Export Plug-In . SVG Version: 6.00 Build 0)  -->
<svg version="1.1" id="图层_1" xmlns="http://www.w3.org/2000/svg" xmlns:xlink="http://www.w3.org/1999/xlink" x="0px" y="0px"
	 viewBox="0 0 24 24" style="enable-background:new 0 0 24 24;" xml:space="preserve">
<style type="text/css">
	.st0{fill:none;}
	.st1{fill:#00BABA;}
</style>
<title>cyan备份</title>
<desc>Created with Sketch.</desc>
<g id="页面-1">
	<g id="iconb" transform="translate(-1336.000000, -243.000000)">
		<g id="Checkbox备份" transform="translate(1336.000000, 242.000000)">
			<rect id="bound" y="1" class="st0" width="24" height="24"/>
			<path id="check-path" class="st1" d="M10.9,15.8c-0.2,0-0.5-0.1-0.7-0.3l-1.9-1.9c-0.4-0.4-0.4-1,0-1.3c0.4-0.4,1-0.4,1.3,0
				l1.2,1.2l3.2-3.2c0.4-0.4,1-0.4,1.3,0c0.4,0.4,0.4,1,0,1.3l-3.8,3.8C11.4,15.7,11.1,15.8,10.9,15.8z"/>
			<path id="Rectangle" d="M7,7C6.4,7,6,7.4,6,8v10c0,0.6,0.4,1,1,1h10c0.6,0,1-0.4,1-1V8c0-0.6-0.4-1-1-1H7z M7,5h10
				c1.7,0,3,1.3,3,3v10c0,1.7-1.3,3-3,3H7c-1.7,0-3-1.3-3-3V8C4,6.3,5.3,5,7,5z"/>
		</g>
	</g>
</g>
</svg>
