<?xml version="1.0" encoding="UTF-8"?>
<svg width="24px" height="24px" viewBox="0 0 24 24" version="1.1" xmlns="http://www.w3.org/2000/svg" xmlns:xlink="http://www.w3.org/1999/xlink">
    <!-- Generator: Sketch 58 (84663) - https://sketch.com -->
    <title>cyan备份 28</title>
    <desc>Created with Sketch.</desc>
    <g id="页面-1" stroke="none" stroke-width="1" fill="none" fill-rule="evenodd">
        <g id="iconb" transform="translate(-833.000000, -868.000000)">
            <g id="Slider" transform="translate(833.000000, 868.000000)">
                <rect id="bound" x="0" y="0" width="24" height="24"></rect>
                <path d="M4.25,9.5 L6.75,9.5 C7.44035594,9.5 8,10.0596441 8,10.75 L8,13.25 C8,13.9403559 7.44035594,14.5 6.75,14.5 L4.25,14.5 C3.55964406,14.5 3,13.9403559 3,13.25 L3,10.75 C3,10.0596441 3.55964406,9.5 4.25,9.5 Z" id="Combined-Shape-path" fill="#00BABA" fill-rule="nonzero"></path>
                <path d="M11.25,10 L13.75,10 C14.4403559,10 15,10.4477153 15,11 L15,13 C15,13.5522847 14.4403559,14 13.75,14 L11.25,14 C10.5596441,14 10,13.5522847 10,13 L10,11 C10,10.4477153 10.5596441,10 11.25,10 Z" id="Combined-Shape-path" fill="#000000" fill-rule="nonzero"></path>
                <path d="M18,10 L20,10 C20.5522847,10 21,10.4477153 21,11 L21,13 C21,13.5522847 20.5522847,14 20,14 L18,14 C17.4477153,14 17,13.5522847 17,13 L17,11 C17,10.4477153 17.4477153,10 18,10 Z" id="Combined-Shape-path" fill="#000000" fill-rule="nonzero"></path>
            </g>
        </g>
    </g>
</svg>