<?xml version="1.0" encoding="UTF-8"?>
<svg width="24px" height="24px" viewBox="0 0 24 24" version="1.1" xmlns="http://www.w3.org/2000/svg" xmlns:xlink="http://www.w3.org/1999/xlink">
    <!-- Generator: Sketch 58 (84663) - https://sketch.com -->
    <title>cyan备份 2</title>
    <desc>Created with Sketch.</desc>
    <g id="页面-1" stroke="none" stroke-width="1" fill="none" fill-rule="evenodd">
        <g id="iconb" transform="translate(-207.000000, -367.000000)">
            <g id="Scroll-Container" transform="translate(207.000000, 368.000000)">
                <rect id="bound" x="0" y="0" width="24" height="24"></rect>
                <path d="M3,4 L20,4 C20.5522847,4 21,4.44771525 21,5 L21,7 C21,7.55228475 20.5522847,8 20,8 L3,8 C2.44771525,8 2,7.55228475 2,7 L2,5 C2,4.44771525 2.44771525,4 3,4 Z M10,10 L20,10 C20.5522847,10 21,10.4477153 21,11 L21,19 C21,19.5522847 20.5522847,20 20,20 L10,20 C9.44771525,20 9,19.5522847 9,19 L9,11 C9,10.4477153 9.44771525,10 10,10 Z" id="Combined-Shape" fill="#000000" fill-rule="nonzero"></path>
                <rect id="Rectangle-7-Copy-2" fill="#00BABA" fill-rule="nonzero" x="2" y="10" width="5" height="10" rx="1"></rect>
            </g>
        </g>
    </g>
</svg>