<?xml version="1.0" encoding="UTF-8"?>
<svg width="24px" height="24px" viewBox="0 0 24 24" version="1.1" xmlns="http://www.w3.org/2000/svg" xmlns:xlink="http://www.w3.org/1999/xlink">
    <!-- Generator: Sketch 58 (84663) - https://sketch.com -->
    <title>cyan备份 26</title>
    <desc>Created with Sketch.</desc>
    <g id="页面-1" stroke="none" stroke-width="1" fill="none" fill-rule="evenodd">
        <g id="iconb" transform="translate(-583.000000, -868.000000)">
            <g id="Scroll" transform="translate(583.000000, 868.000000)">
                <polygon id="Bound" points="0 0 24 0 24 24 0 24"></polygon>
                <path d="M21,12 C21,12.5522847 20.5522847,13 20,13 L19,13 C18.4477153,13 18,12.5522847 18,12 C18,11.4477153 18.4477153,11 19,11 L20,11 C20.5522847,11 21,11.4477153 21,12 Z M16,12 C16,12.5522847 15.5522847,13 15,13 L14,13 C13.4477153,13 13,12.5522847 13,12 C13,11.4477153 13.4477153,11 14,11 L15,11 C15.5522847,11 16,11.4477153 16,12 Z M11,12 C11,12.5522847 10.5522847,13 10,13 L9,13 C8.44771525,13 8,12.5522847 8,12 C8,11.4477153 8.44771525,11 9,11 L10,11 C10.5522847,11 11,11.4477153 11,12 Z M6,12 C6,12.5522847 5.55228475,13 5,13 L4,13 C3.44771525,13 3,12.5522847 3,12 C3,11.4477153 3.44771525,11 4,11 L5,11 C5.55228475,11 6,11.4477153 6,12 Z" id="Combined-Shape" fill="#000000" fill-rule="nonzero"></path>
                <path d="M9.04033084,16.3003721 L14.959706,16.3003721 C15.2358484,16.3003721 15.459706,16.5242297 15.459706,16.8003721 C15.459706,16.9139078 15.4210656,17.0240631 15.3501404,17.1127196 L12.3904528,20.8123291 C12.217948,21.0279601 11.9033018,21.0629207 11.6876709,20.890416 C11.6588385,20.8673501 11.6326499,20.8411614 11.609584,20.8123291 L8.64989644,17.1127196 C8.47739164,16.8970887 8.51235234,16.5824425 8.72798334,16.4099377 C8.81663984,16.3390125 8.92679514,16.3003721 9.04033084,16.3003721 Z M14.9596692,7.69962788 L9.04029401,7.69962788 C8.76415161,7.69962788 8.54029401,7.47577025 8.54029401,7.19962788 C8.54029401,7.08609213 8.57893441,6.97593688 8.64985961,6.88728036 L11.6095472,3.18767089 C11.782052,2.97203992 12.0966982,2.93707923 12.3123291,3.109584 C12.3411615,3.13264989 12.3673501,3.15883853 12.390416,3.18767089 L15.3501036,6.88728036 C15.5226084,7.10291132 15.4876477,7.41755751 15.2720167,7.59006228 C15.1833602,7.6609875 15.0732049,7.69962788 14.9596692,7.69962788 Z" id="Combined-Shape" fill="#00BABA" fill-rule="nonzero"></path>
            </g>
        </g>
    </g>
</svg>