<?xml version="1.0" encoding="UTF-8"?>
<svg width="24px" height="24px" viewBox="0 0 24 24" version="1.1" xmlns="http://www.w3.org/2000/svg" xmlns:xlink="http://www.w3.org/1999/xlink">
    <!-- Generator: Sketch 58 (84663) - https://sketch.com -->
    <title>cyan备份 10</title>
    <desc>Created with Sketch.</desc>
    <g id="页面-1" stroke="none" stroke-width="1" fill="none" fill-rule="evenodd">
        <g id="icon" transform="translate(-1208.000000, -367.000000)">
            <g id="Url备份" transform="translate(1208.000000, 368.000000)">
                <rect id="bound" x="0" y="0" width="24" height="24"></rect>
                <path d="M12.464466,14.5355339 L9.46446599,14.5355339 C8.91218124,14.5355339 8.46446599,14.9832492 8.46446599,15.5355339 C8.46446599,16.0878187 8.91218124,16.5355339 9.46446599,16.5355339 L12.464466,16.5355339 L12.464466,17.5355339 C12.464466,18.6401034 11.5690355,19.5355339 10.464466,19.5355339 L6.46446599,19.5355339 C5.35989649,19.5355339 4.46446599,18.6401034 4.46446599,17.5355339 L4.46446599,13.5355339 C4.46446599,12.4309644 5.35989649,11.5355339 6.46446599,11.5355339 L10.464466,11.5355339 C11.5690355,11.5355339 12.464466,12.4309644 12.464466,13.5355339 L12.464466,14.5355339 Z" id="Combined-Shape" fill="#000000" fill-rule="nonzero" opacity="0.3" transform="translate(8.464466, 15.535534) rotate(-45.000000) translate(-8.464466, -15.535534) "></path>
                <path d="M11.535534,9.46446613 L14.535534,9.46446613 C15.0878188,9.46446613 15.535534,9.01675088 15.535534,8.46446613 C15.535534,7.91218138 15.0878188,7.46446613 14.535534,7.46446613 L11.535534,7.46446613 L11.535534,6.46446613 C11.535534,5.35989663 12.4309645,4.46446613 13.535534,4.46446613 L17.535534,4.46446613 C18.6401035,4.46446613 19.535534,5.35989663 19.535534,6.46446613 L19.535534,10.4644661 C19.535534,11.5690356 18.6401035,12.4644661 17.535534,12.4644661 L13.535534,12.4644661 C12.4309645,12.4644661 11.535534,11.5690356 11.535534,10.4644661 L11.535534,9.46446613 Z" id="Combined-Shape-Copy" fill="#000000" fill-rule="nonzero" transform="translate(15.535534, 8.464466) rotate(-45.000000) translate(-15.535534, -8.464466) "></path>
            </g>
        </g>
    </g>
</svg>